<?xml version="1.0" encoding="UTF-8"?>
<svg xmlns="http://www.w3.org/2000/svg" xmlns:xlink="http://www.w3.org/1999/xlink" width="30pt" height="30pt" viewBox="0 0 30 30" version="1.1">
<g id="surface2105359">
<path style=" stroke:none;fill-rule:nonzero;fill:rgb(95.686275%,53.72549%,50.980392%);fill-opacity:1;" d="M 13.109375 29.0625 L 12.257812 25.652344 L 12.152344 25.621094 C 10.277344 25.121094 8.570312 24.140625 7.214844 22.78125 L 7.136719 22.703125 L 3.765625 23.667969 L 1.875 20.394531 L 4.40625 17.949219 L 4.375 17.84375 C 4.121094 16.886719 3.992188 15.929688 3.992188 15 C 3.992188 14.066406 4.121094 13.109375 4.375 12.15625 L 4.40625 12.046875 L 1.875 9.605469 L 3.765625 6.332031 L 7.136719 7.296875 L 7.214844 7.21875 C 8.570312 5.859375 10.277344 4.878906 12.152344 4.375 L 12.257812 4.347656 L 13.109375 0.9375 L 16.890625 0.9375 L 17.742188 4.347656 L 17.847656 4.378906 C 19.722656 4.878906 21.429688 5.859375 22.785156 7.21875 L 22.863281 7.296875 L 26.234375 6.332031 L 28.121094 9.605469 L 25.59375 12.050781 L 25.625 12.15625 C 25.878906 13.109375 26.007812 14.066406 26.007812 15 C 26.007812 15.933594 25.878906 16.890625 25.625 17.84375 L 25.59375 17.953125 L 28.121094 20.394531 L 26.234375 23.667969 L 22.863281 22.703125 L 22.785156 22.78125 C 21.429688 24.140625 19.722656 25.121094 17.847656 25.625 L 17.742188 25.652344 L 16.890625 29.0625 Z M 15 9.214844 C 11.808594 9.214844 9.214844 11.808594 9.214844 15 C 9.214844 18.191406 11.808594 20.785156 15 20.785156 C 18.191406 20.785156 20.785156 18.191406 20.785156 15 C 20.785156 11.808594 18.191406 9.214844 15 9.214844 Z M 15 9.214844 "/>
<path style=" stroke:none;fill-rule:nonzero;fill:rgb(96.078431%,60.392157%,51.372549%);fill-opacity:1;" d="M 16.742188 1.125 L 17.535156 4.285156 L 17.585938 4.5 L 17.800781 4.558594 C 19.644531 5.050781 21.320312 6.015625 22.65625 7.351562 L 22.808594 7.507812 L 23.023438 7.445312 L 26.144531 6.554688 L 27.886719 9.570312 L 25.542969 11.835938 L 25.386719 11.992188 L 25.441406 12.203125 C 25.695312 13.144531 25.820312 14.085938 25.820312 15 C 25.820312 15.914062 25.695312 16.855469 25.441406 17.796875 L 25.386719 18.007812 L 25.542969 18.164062 L 27.886719 20.429688 L 26.144531 23.445312 L 23.023438 22.554688 L 22.808594 22.492188 L 22.65625 22.648438 C 21.320312 23.984375 19.644531 24.949219 17.800781 25.441406 L 17.585938 25.5 L 17.535156 25.714844 L 16.742188 28.875 L 13.257812 28.875 L 12.464844 25.714844 L 12.414062 25.5 L 12.199219 25.441406 C 10.355469 24.949219 8.679688 23.984375 7.34375 22.648438 L 7.191406 22.492188 L 6.976562 22.554688 L 3.855469 23.445312 L 2.113281 20.429688 L 4.457031 18.164062 L 4.613281 18.007812 L 4.558594 17.796875 C 4.304688 16.855469 4.179688 15.914062 4.179688 15 C 4.179688 14.085938 4.304688 13.144531 4.558594 12.203125 L 4.613281 11.992188 L 4.457031 11.835938 L 2.113281 9.570312 L 3.855469 6.554688 L 6.976562 7.445312 L 7.191406 7.507812 L 7.34375 7.351562 C 8.679688 6.015625 10.355469 5.050781 12.199219 4.558594 L 12.414062 4.5 L 12.464844 4.285156 L 13.257812 1.125 L 16.742188 1.125 M 15 20.972656 C 18.292969 20.972656 20.972656 18.292969 20.972656 15 C 20.972656 11.707031 18.292969 9.027344 15 9.027344 C 11.707031 9.027344 9.027344 11.707031 9.027344 15 C 9.027344 18.292969 11.707031 20.972656 15 20.972656 M 17.035156 0.75 L 12.964844 0.75 L 12.101562 4.195312 C 10.175781 4.710938 8.449219 5.714844 7.082031 7.085938 L 3.675781 6.113281 L 1.640625 9.636719 L 4.195312 12.105469 C 3.945312 13.03125 3.804688 13.996094 3.804688 15 C 3.804688 16.003906 3.949219 16.96875 4.195312 17.894531 L 1.640625 20.363281 L 3.675781 23.886719 L 7.082031 22.914062 C 8.449219 24.285156 10.175781 25.289062 12.101562 25.804688 L 12.964844 29.25 L 17.035156 29.25 L 17.898438 25.804688 C 19.824219 25.289062 21.550781 24.285156 22.917969 22.914062 L 26.324219 23.886719 L 28.359375 20.363281 L 25.804688 17.894531 C 26.050781 16.96875 26.195312 16.003906 26.195312 15 C 26.195312 13.996094 26.050781 13.03125 25.804688 12.105469 L 28.359375 9.636719 L 26.324219 6.113281 L 22.917969 7.085938 C 21.550781 5.714844 19.824219 4.710938 17.898438 4.195312 Z M 15 20.597656 C 11.90625 20.597656 9.402344 18.09375 9.402344 15 C 9.402344 11.90625 11.90625 9.402344 15 9.402344 C 18.09375 9.402344 20.597656 11.90625 20.597656 15 C 20.597656 18.09375 18.09375 20.597656 15 20.597656 Z M 15 20.597656 "/>
<path style=" stroke:none;fill-rule:nonzero;fill:rgb(96.078431%,60.392157%,51.372549%);fill-opacity:1;" d="M 15 23.0625 C 10.554688 23.0625 6.9375 19.445312 6.9375 15 C 6.9375 10.554688 10.554688 6.9375 15 6.9375 C 19.445312 6.9375 23.0625 10.554688 23.0625 15 C 23.0625 19.445312 19.445312 23.0625 15 23.0625 Z M 15 11.8125 C 13.242188 11.8125 11.8125 13.242188 11.8125 15 C 11.8125 16.757812 13.242188 18.1875 15 18.1875 C 16.757812 18.1875 18.1875 16.757812 18.1875 15 C 18.1875 13.242188 16.757812 11.8125 15 11.8125 Z M 15 11.8125 "/>
<path style=" stroke:none;fill-rule:nonzero;fill:rgb(96.078431%,60.392157%,51.372549%);fill-opacity:1;" d="M 15 7.125 C 19.34375 7.125 22.875 10.65625 22.875 15 C 22.875 19.34375 19.34375 22.875 15 22.875 C 10.65625 22.875 7.125 19.34375 7.125 15 C 7.125 10.65625 10.65625 7.125 15 7.125 M 15 18.375 C 16.859375 18.375 18.375 16.859375 18.375 15 C 18.375 13.140625 16.859375 11.625 15 11.625 C 13.140625 11.625 11.625 13.140625 11.625 15 C 11.625 16.859375 13.140625 18.375 15 18.375 M 15 6.75 C 10.445312 6.75 6.75 10.445312 6.75 15 C 6.75 19.554688 10.445312 23.25 15 23.25 C 19.554688 23.25 23.25 19.554688 23.25 15 C 23.25 10.445312 19.554688 6.75 15 6.75 Z M 15 18 C 13.34375 18 12 16.65625 12 15 C 12 13.34375 13.34375 12 15 12 C 16.65625 12 18 13.34375 18 15 C 18 16.65625 16.65625 18 15 18 Z M 15 18 "/>
</g>
</svg>
